<mxfile host="app.diagrams.net" modified="2021-11-15T07:08:32.503Z" agent="5.0 (Macintosh; Intel Mac OS X 10_15_7) AppleWebKit/605.1.15 (KHTML, like Gecko) Version/15.1 Safari/605.1.15" etag="HnxJs1vcpjJncIYl_lCm" version="15.7.3" type="github">
  <diagram id="DN2LglZzHcZhdb8wmJYU" name="Page-1">
    <mxGraphModel dx="705" dy="569" grid="1" gridSize="10" guides="1" tooltips="1" connect="1" arrows="1" fold="1" page="1" pageScale="1" pageWidth="827" pageHeight="1169" math="0" shadow="0">
      <root>
        <mxCell id="0" />
        <mxCell id="1" parent="0" />
        <mxCell id="abK9-RNhzucmv1NQsEdF-14" style="edgeStyle=orthogonalEdgeStyle;rounded=0;orthogonalLoop=1;jettySize=auto;html=1;exitX=0.5;exitY=1;exitDx=0;exitDy=0;entryX=0.5;entryY=0;entryDx=0;entryDy=0;entryPerimeter=0;" edge="1" parent="1" source="abK9-RNhzucmv1NQsEdF-3" target="abK9-RNhzucmv1NQsEdF-7">
          <mxGeometry relative="1" as="geometry" />
        </mxCell>
        <mxCell id="abK9-RNhzucmv1NQsEdF-3" value="Program Arguments" style="shape=parallelogram;html=1;strokeWidth=2;perimeter=parallelogramPerimeter;whiteSpace=wrap;rounded=1;arcSize=12;size=0.23;" vertex="1" parent="1">
          <mxGeometry x="255" y="30" width="100" height="60" as="geometry" />
        </mxCell>
        <mxCell id="abK9-RNhzucmv1NQsEdF-16" style="edgeStyle=orthogonalEdgeStyle;rounded=0;orthogonalLoop=1;jettySize=auto;html=1;exitX=0.5;exitY=1;exitDx=0;exitDy=0;entryX=0.5;entryY=0;entryDx=0;entryDy=0;entryPerimeter=0;" edge="1" parent="1" source="abK9-RNhzucmv1NQsEdF-4" target="abK9-RNhzucmv1NQsEdF-15">
          <mxGeometry relative="1" as="geometry" />
        </mxCell>
        <mxCell id="abK9-RNhzucmv1NQsEdF-4" value="Display Instructions" style="rounded=1;whiteSpace=wrap;html=1;absoluteArcSize=1;arcSize=14;strokeWidth=2;" vertex="1" parent="1">
          <mxGeometry x="90" y="270" width="90" height="50" as="geometry" />
        </mxCell>
        <mxCell id="abK9-RNhzucmv1NQsEdF-18" style="edgeStyle=orthogonalEdgeStyle;rounded=0;orthogonalLoop=1;jettySize=auto;html=1;exitX=0.5;exitY=1;exitDx=0;exitDy=0;entryX=0.5;entryY=0;entryDx=0;entryDy=0;" edge="1" parent="1" source="abK9-RNhzucmv1NQsEdF-5" target="abK9-RNhzucmv1NQsEdF-17">
          <mxGeometry relative="1" as="geometry" />
        </mxCell>
        <mxCell id="abK9-RNhzucmv1NQsEdF-5" value="Initialise Waves (File: Every line declares a wave)" style="rounded=1;whiteSpace=wrap;html=1;absoluteArcSize=1;arcSize=14;strokeWidth=2;" vertex="1" parent="1">
          <mxGeometry x="250" y="270" width="110" height="70" as="geometry" />
        </mxCell>
        <mxCell id="abK9-RNhzucmv1NQsEdF-20" style="edgeStyle=orthogonalEdgeStyle;rounded=0;orthogonalLoop=1;jettySize=auto;html=1;exitX=0.5;exitY=1;exitDx=0;exitDy=0;entryX=0.5;entryY=0;entryDx=0;entryDy=0;" edge="1" parent="1" source="abK9-RNhzucmv1NQsEdF-6" target="abK9-RNhzucmv1NQsEdF-17">
          <mxGeometry relative="1" as="geometry">
            <Array as="points">
              <mxPoint x="474" y="370" />
              <mxPoint x="385" y="370" />
            </Array>
          </mxGeometry>
        </mxCell>
        <mxCell id="abK9-RNhzucmv1NQsEdF-6" value="Initialise the Wave Based on the Parameters" style="rounded=1;whiteSpace=wrap;html=1;absoluteArcSize=1;arcSize=14;strokeWidth=2;" vertex="1" parent="1">
          <mxGeometry x="414" y="270" width="120" height="60" as="geometry" />
        </mxCell>
        <mxCell id="abK9-RNhzucmv1NQsEdF-8" style="edgeStyle=orthogonalEdgeStyle;rounded=0;orthogonalLoop=1;jettySize=auto;html=1;exitX=0;exitY=0.5;exitDx=0;exitDy=0;exitPerimeter=0;entryX=0.5;entryY=0;entryDx=0;entryDy=0;" edge="1" parent="1" source="abK9-RNhzucmv1NQsEdF-7" target="abK9-RNhzucmv1NQsEdF-4">
          <mxGeometry relative="1" as="geometry" />
        </mxCell>
        <mxCell id="abK9-RNhzucmv1NQsEdF-11" value="--h" style="edgeLabel;html=1;align=center;verticalAlign=middle;resizable=0;points=[];" vertex="1" connectable="0" parent="abK9-RNhzucmv1NQsEdF-8">
          <mxGeometry x="0.0102" y="-3" relative="1" as="geometry">
            <mxPoint x="3" y="23" as="offset" />
          </mxGeometry>
        </mxCell>
        <mxCell id="abK9-RNhzucmv1NQsEdF-9" style="edgeStyle=orthogonalEdgeStyle;rounded=0;orthogonalLoop=1;jettySize=auto;html=1;exitX=0.5;exitY=1;exitDx=0;exitDy=0;exitPerimeter=0;entryX=0.5;entryY=0;entryDx=0;entryDy=0;" edge="1" parent="1" source="abK9-RNhzucmv1NQsEdF-7" target="abK9-RNhzucmv1NQsEdF-5">
          <mxGeometry relative="1" as="geometry" />
        </mxCell>
        <mxCell id="abK9-RNhzucmv1NQsEdF-12" value="--fn=path_to_the_file" style="edgeLabel;html=1;align=center;verticalAlign=middle;resizable=0;points=[];" vertex="1" connectable="0" parent="abK9-RNhzucmv1NQsEdF-9">
          <mxGeometry x="-0.1778" relative="1" as="geometry">
            <mxPoint y="2" as="offset" />
          </mxGeometry>
        </mxCell>
        <mxCell id="abK9-RNhzucmv1NQsEdF-10" style="edgeStyle=orthogonalEdgeStyle;rounded=0;orthogonalLoop=1;jettySize=auto;html=1;exitX=1;exitY=0.5;exitDx=0;exitDy=0;exitPerimeter=0;entryX=0.5;entryY=0;entryDx=0;entryDy=0;" edge="1" parent="1" source="abK9-RNhzucmv1NQsEdF-7" target="abK9-RNhzucmv1NQsEdF-6">
          <mxGeometry relative="1" as="geometry" />
        </mxCell>
        <mxCell id="abK9-RNhzucmv1NQsEdF-13" value="--w=wave_form&lt;br&gt;--a=wave_amplitude&lt;br&gt;--f=wave_frequency" style="edgeLabel;html=1;align=center;verticalAlign=middle;resizable=0;points=[];" vertex="1" connectable="0" parent="abK9-RNhzucmv1NQsEdF-10">
          <mxGeometry x="0.1536" y="-1" relative="1" as="geometry">
            <mxPoint x="1" y="11" as="offset" />
          </mxGeometry>
        </mxCell>
        <mxCell id="abK9-RNhzucmv1NQsEdF-7" value="Actions Based on Program Arguments" style="strokeWidth=2;html=1;shape=mxgraph.flowchart.decision;whiteSpace=wrap;" vertex="1" parent="1">
          <mxGeometry x="157.5" y="110" width="295" height="70" as="geometry" />
        </mxCell>
        <mxCell id="abK9-RNhzucmv1NQsEdF-15" value="End of Program" style="strokeWidth=2;html=1;shape=mxgraph.flowchart.terminator;whiteSpace=wrap;" vertex="1" parent="1">
          <mxGeometry x="85" y="400" width="100" height="40" as="geometry" />
        </mxCell>
        <mxCell id="abK9-RNhzucmv1NQsEdF-17" value="Return Wave Count to Main" style="shape=parallelogram;html=1;strokeWidth=2;perimeter=parallelogramPerimeter;whiteSpace=wrap;rounded=1;arcSize=12;size=0.23;" vertex="1" parent="1">
          <mxGeometry x="270" y="400" width="230" height="40" as="geometry" />
        </mxCell>
      </root>
    </mxGraphModel>
  </diagram>
</mxfile>
